<svg width="664" height="172" viewBox="0 0 664 172" fill="none" xmlns="http://www.w3.org/2000/svg">
<g clip-path="url(#clip0_874_375)">
<path d="M0 2.6875H139.531V101.862C139.531 140.572 108.272 172 69.7681 172C31.2593 172 0 140.572 0 101.862V2.6875Z" fill="#4247B6"/>
<path d="M423.682 172L284.151 172V72.8259C284.151 34.1151 315.411 2.68749 353.914 2.68749C392.418 2.68749 423.677 34.1151 423.677 72.8259V172H423.682Z" fill="#4247B6"/>
<path d="M565.758 2.6875V172H510.43C463.955 172 426.227 134.069 426.227 87.3438C426.227 40.6189 463.955 2.6875 510.43 2.6875L565.758 2.6875Z" fill="#575EF1"/>
<path d="M570.165 172H657.426V2.6875H570.165V172Z" fill="#4247B6"/>
<path d="M281.607 0V86H184.845C161.242 86 142.076 66.7306 142.076 43C142.076 19.2694 161.242 0 184.845 0L281.607 0Z" fill="#F15757"/>
<path d="M281.607 129C281.607 152.731 262.44 172 238.837 172H142.076V86L238.837 86C262.44 86 281.607 105.269 281.607 129Z" fill="#F15757"/>
</g>
<defs>
<clipPath id="clip0_874_375">
<rect width="664" height="172" fill="white"/>
</clipPath>
</defs>
</svg>
