<svg width="233" height="60" viewBox="0 0 233 60" fill="none" xmlns="http://www.w3.org/2000/svg">
<g clip-path="url(#clip0_894_848)">
<path d="M0.15 1.0875H48.7546V35.5331C48.7546 48.9541 37.8655 59.85 24.4532 59.85C11.0391 59.85 0.15 48.9541 0.15 35.5331V1.0875Z" stroke="#4247B6" stroke-width="0.3"/>
<path d="M148.346 59.85L99.743 59.85V25.4044C99.743 11.9834 110.632 1.0875 124.044 1.0875C137.457 1.0875 148.346 11.9834 148.346 25.4044V59.85Z" stroke="#4247B6" stroke-width="0.3"/>
<path d="M198.144 1.0875V59.85H178.902C162.696 59.85 149.54 46.6854 149.54 30.4688C149.54 14.2521 162.696 1.0875 178.902 1.0875L198.144 1.0875Z" stroke="#F15757" stroke-width="0.3"/>
<path d="M230.273 59.85L199.989 59.85V1.0875L230.273 1.0875V59.85Z" stroke="#4247B6" stroke-width="0.3"/>
<path d="M98.5511 0.15V29.85L64.787 29.85C56.5971 29.85 49.9465 23.1954 49.9465 15C49.9465 6.80463 56.5971 0.15 64.787 0.15L98.5511 0.15Z" stroke="#F15757" stroke-width="0.3"/>
<path d="M98.5511 45C98.5511 53.1954 91.9006 59.85 83.7107 59.85H49.9465V30.15L83.7107 30.15C91.9006 30.15 98.5511 36.8046 98.5511 45Z" stroke="#F15757" stroke-width="0.3"/>
</g>
<defs>
<clipPath id="clip0_894_848">
<rect width="232.727" height="60" fill="white"/>
</clipPath>
</defs>
</svg>
